<?xml version="1.0" encoding="UTF-8" standalone="no"?><!DOCTYPE svg PUBLIC "-//W3C//DTD SVG 1.1//EN" "http://www.w3.org/Graphics/SVG/1.1/DTD/svg11.dtd"><!-- Generated by graphviz version 2.40.1 (20161225.0304)
 --><!-- Title: Tree Pages: 1 --><svg xmlns="http://www.w3.org/2000/svg" xmlns:xlink="http://www.w3.org/1999/xlink" width="359pt" height="339pt" viewBox="0.00 0.00 358.88 339.20">
<g id="graph0" class="graph" transform="scale(1 1) rotate(0) translate(4 335.2)">
<title>Tree</title>
<polygon fill="#ffffff" stroke="transparent" points="-4,4 -4,-335.2 354.8842,-335.2 354.8842,4 -4,4"/>
<!-- 0 -->
<g id="node1" class="node">
<title>0</title>
<path fill="#ffffff" stroke="#000000" d="M207.3057,-331.2C207.3057,-331.2 72.5785,-331.2 72.5785,-331.2 66.5785,-331.2 60.5785,-325.2 60.5785,-319.2 60.5785,-319.2 60.5785,-251.2 60.5785,-251.2 60.5785,-245.2 66.5785,-239.2 72.5785,-239.2 72.5785,-239.2 207.3057,-239.2 207.3057,-239.2 213.3057,-239.2 219.3057,-245.2 219.3057,-251.2 219.3057,-251.2 219.3057,-319.2 219.3057,-319.2 219.3057,-325.2 213.3057,-331.2 207.3057,-331.2"/>
<text text-anchor="middle" x="139.9421" y="-314.6" font-family="Helvetica,sans-Serif" font-size="14.00" fill="#000000">petal width (cm) &lt;= 0.8</text>
<text text-anchor="middle" x="139.9421" y="-297.8" font-family="Helvetica,sans-Serif" font-size="14.00" fill="#000000">gini = 0.667</text>
<text text-anchor="middle" x="139.9421" y="-281" font-family="Helvetica,sans-Serif" font-size="14.00" fill="#000000">samples = 150</text>
<text text-anchor="middle" x="139.9421" y="-264.2" font-family="Helvetica,sans-Serif" font-size="14.00" fill="#000000">value = [50, 50, 50]</text>
<text text-anchor="middle" x="139.9421" y="-247.4" font-family="Helvetica,sans-Serif" font-size="14.00" fill="#000000">class = setosa</text>
</g>
<!-- 1 -->
<g id="node2" class="node">
<title>1</title>
<path fill="#e58139" stroke="#000000" d="M107.8264,-194.9003C107.8264,-194.9003 12.0578,-194.9003 12.0578,-194.9003 6.0578,-194.9003 .0578,-188.9003 .0578,-182.9003 .0578,-182.9003 .0578,-131.4997 .0578,-131.4997 .0578,-125.4997 6.0578,-119.4997 12.0578,-119.4997 12.0578,-119.4997 107.8264,-119.4997 107.8264,-119.4997 113.8264,-119.4997 119.8264,-125.4997 119.8264,-131.4997 119.8264,-131.4997 119.8264,-182.9003 119.8264,-182.9003 119.8264,-188.9003 113.8264,-194.9003 107.8264,-194.9003"/>
<text text-anchor="middle" x="59.9421" y="-178.2" font-family="Helvetica,sans-Serif" font-size="14.00" fill="#000000">gini = 0.0</text>
<text text-anchor="middle" x="59.9421" y="-161.4" font-family="Helvetica,sans-Serif" font-size="14.00" fill="#000000">samples = 50</text>
<text text-anchor="middle" x="59.9421" y="-144.6" font-family="Helvetica,sans-Serif" font-size="14.00" fill="#000000">value = [50, 0, 0]</text>
<text text-anchor="middle" x="59.9421" y="-127.8" font-family="Helvetica,sans-Serif" font-size="14.00" fill="#000000">class = setosa</text>
</g>
<!-- 0&#45;&gt;1 -->
<g id="edge1" class="edge">
<title>0-&gt;1</title>
<path fill="none" stroke="#000000" d="M111.0603,-238.9891C103.856,-227.4622 96.129,-215.099 88.92,-203.5647"/>
<polygon fill="#000000" stroke="#000000" points="91.7936,-201.5585 83.5255,-194.9335 85.8576,-205.2685 91.7936,-201.5585"/>
<text text-anchor="middle" x="77.904" y="-215.0933" font-family="Helvetica,sans-Serif" font-size="14.00" fill="#000000">True</text>
</g>
<!-- 2 -->
<g id="node3" class="node">
<title>2</title>
<path fill="#ffffff" stroke="#000000" d="M292.088,-203.2C292.088,-203.2 149.7962,-203.2 149.7962,-203.2 143.7962,-203.2 137.7962,-197.2 137.7962,-191.2 137.7962,-191.2 137.7962,-123.2 137.7962,-123.2 137.7962,-117.2 143.7962,-111.2 149.7962,-111.2 149.7962,-111.2 292.088,-111.2 292.088,-111.2 298.088,-111.2 304.088,-117.2 304.088,-123.2 304.088,-123.2 304.088,-191.2 304.088,-191.2 304.088,-197.2 298.088,-203.2 292.088,-203.2"/>
<text text-anchor="middle" x="220.9421" y="-186.6" font-family="Helvetica,sans-Serif" font-size="14.00" fill="#000000">petal width (cm) &lt;= 1.75</text>
<text text-anchor="middle" x="220.9421" y="-169.8" font-family="Helvetica,sans-Serif" font-size="14.00" fill="#000000">gini = 0.5</text>
<text text-anchor="middle" x="220.9421" y="-153" font-family="Helvetica,sans-Serif" font-size="14.00" fill="#000000">samples = 100</text>
<text text-anchor="middle" x="220.9421" y="-136.2" font-family="Helvetica,sans-Serif" font-size="14.00" fill="#000000">value = [0, 50, 50]</text>
<text text-anchor="middle" x="220.9421" y="-119.4" font-family="Helvetica,sans-Serif" font-size="14.00" fill="#000000">class = versicolor</text>
</g>
<!-- 0&#45;&gt;2 -->
<g id="edge2" class="edge">
<title>0-&gt;2</title>
<path fill="none" stroke="#000000" d="M169.185,-238.9891C174.7481,-230.1979 180.6191,-220.9202 186.3305,-211.8949"/>
<polygon fill="#000000" stroke="#000000" points="189.3523,-213.6649 191.7422,-203.3431 183.4372,-209.9217 189.3523,-213.6649"/>
<text text-anchor="middle" x="197.2272" y="-223.534" font-family="Helvetica,sans-Serif" font-size="14.00" fill="#000000">False</text>
</g>
<!-- 3 -->
<g id="node4" class="node">
<title>3</title>
<path fill="#4de88e" stroke="#000000" d="M200.6696,-75.3003C200.6696,-75.3003 101.2146,-75.3003 101.2146,-75.3003 95.2146,-75.3003 89.2146,-69.3003 89.2146,-63.3003 89.2146,-63.3003 89.2146,-11.8997 89.2146,-11.8997 89.2146,-5.8997 95.2146,.1003 101.2146,.1003 101.2146,.1003 200.6696,.1003 200.6696,.1003 206.6696,.1003 212.6696,-5.8997 212.6696,-11.8997 212.6696,-11.8997 212.6696,-63.3003 212.6696,-63.3003 212.6696,-69.3003 206.6696,-75.3003 200.6696,-75.3003"/>
<text text-anchor="middle" x="150.9421" y="-58.6" font-family="Helvetica,sans-Serif" font-size="14.00" fill="#000000">gini = 0.168</text>
<text text-anchor="middle" x="150.9421" y="-41.8" font-family="Helvetica,sans-Serif" font-size="14.00" fill="#000000">samples = 54</text>
<text text-anchor="middle" x="150.9421" y="-25" font-family="Helvetica,sans-Serif" font-size="14.00" fill="#000000">value = [0, 49, 5]</text>
<text text-anchor="middle" x="150.9421" y="-8.2" font-family="Helvetica,sans-Serif" font-size="14.00" fill="#000000">class = versicolor</text>
</g>
<!-- 2&#45;&gt;3 -->
<g id="edge3" class="edge">
<title>2-&gt;3</title>
<path fill="none" stroke="#000000" d="M193.8783,-110.9595C188.6845,-102.0855 183.2445,-92.791 178.0494,-83.9147"/>
<polygon fill="#000000" stroke="#000000" points="181.0259,-82.0713 172.954,-75.2088 174.9846,-85.6073 181.0259,-82.0713"/>
</g>
<!-- 4 -->
<g id="node5" class="node">
<title>4</title>
<path fill="#843de6" stroke="#000000" d="M338.8264,-75.3003C338.8264,-75.3003 243.0578,-75.3003 243.0578,-75.3003 237.0578,-75.3003 231.0578,-69.3003 231.0578,-63.3003 231.0578,-63.3003 231.0578,-11.8997 231.0578,-11.8997 231.0578,-5.8997 237.0578,.1003 243.0578,.1003 243.0578,.1003 338.8264,.1003 338.8264,.1003 344.8264,.1003 350.8264,-5.8997 350.8264,-11.8997 350.8264,-11.8997 350.8264,-63.3003 350.8264,-63.3003 350.8264,-69.3003 344.8264,-75.3003 338.8264,-75.3003"/>
<text text-anchor="middle" x="290.9421" y="-58.6" font-family="Helvetica,sans-Serif" font-size="14.00" fill="#000000">gini = 0.043</text>
<text text-anchor="middle" x="290.9421" y="-41.8" font-family="Helvetica,sans-Serif" font-size="14.00" fill="#000000">samples = 46</text>
<text text-anchor="middle" x="290.9421" y="-25" font-family="Helvetica,sans-Serif" font-size="14.00" fill="#000000">value = [0, 1, 45]</text>
<text text-anchor="middle" x="290.9421" y="-8.2" font-family="Helvetica,sans-Serif" font-size="14.00" fill="#000000">class = virginica</text>
</g>
<!-- 2&#45;&gt;4 -->
<g id="edge4" class="edge">
<title>2-&gt;4</title>
<path fill="none" stroke="#000000" d="M248.0059,-110.9595C253.1997,-102.0855 258.6397,-92.791 263.8348,-83.9147"/>
<polygon fill="#000000" stroke="#000000" points="266.8996,-85.6073 268.9302,-75.2088 260.8583,-82.0713 266.8996,-85.6073"/>
</g>
</g>
</svg>