<?xml version="1.0" encoding="UTF-8" standalone="no"?>
<!DOCTYPE svg PUBLIC "-//W3C//DTD SVG 1.1//EN" "http://www.w3.org/Graphics/SVG/1.1/DTD/svg11.dtd">
<!-- Generated by graphviz version 2.40.1 (20161225.0304)
 -->
<!-- Title: Tree Pages: 1 -->
<svg width="470pt" height="289pt" viewBox="0.00 0.00 470.43 288.80" xmlns="http://www.w3.org/2000/svg" xmlns:xlink="http://www.w3.org/1999/xlink">
<g id="graph0" class="graph" transform="scale(1 1) rotate(0) translate(4 284.8)">
<title>Tree</title>
<polygon fill="#ffffff" stroke="transparent" points="-4,4 -4,-284.8 466.4312,-284.8 466.4312,4 -4,4"/>
<!-- 0 -->
<g id="node1" class="node">
<title>0</title>
<path fill="#f6d6be" stroke="#000000" d="M271.135,-280.9003C271.135,-280.9003 187.2962,-280.9003 187.2962,-280.9003 181.2962,-280.9003 175.2962,-274.9003 175.2962,-268.9003 175.2962,-268.9003 175.2962,-217.4997 175.2962,-217.4997 175.2962,-211.4997 181.2962,-205.4997 187.2962,-205.4997 187.2962,-205.4997 271.135,-205.4997 271.135,-205.4997 277.135,-205.4997 283.135,-211.4997 283.135,-217.4997 283.135,-217.4997 283.135,-268.9003 283.135,-268.9003 283.135,-274.9003 277.135,-280.9003 271.135,-280.9003"/>
<text text-anchor="middle" x="229.2156" y="-264.2" font-family="Helvetica,sans-Serif" font-size="14.00" fill="#000000">x1 &lt;= 0.197</text>
<text text-anchor="middle" x="229.2156" y="-247.4" font-family="Helvetica,sans-Serif" font-size="14.00" fill="#000000">mse = 0.098</text>
<text text-anchor="middle" x="229.2156" y="-230.6" font-family="Helvetica,sans-Serif" font-size="14.00" fill="#000000">samples = 200</text>
<text text-anchor="middle" x="229.2156" y="-213.8" font-family="Helvetica,sans-Serif" font-size="14.00" fill="#000000">value = 0.354</text>
</g>
<!-- 1 -->
<g id="node2" class="node">
<title>1</title>
<path fill="#eb9d65" stroke="#000000" d="M206.6477,-169.7003C206.6477,-169.7003 129.7835,-169.7003 129.7835,-169.7003 123.7835,-169.7003 117.7835,-163.7003 117.7835,-157.7003 117.7835,-157.7003 117.7835,-106.2997 117.7835,-106.2997 117.7835,-100.2997 123.7835,-94.2997 129.7835,-94.2997 129.7835,-94.2997 206.6477,-94.2997 206.6477,-94.2997 212.6477,-94.2997 218.6477,-100.2997 218.6477,-106.2997 218.6477,-106.2997 218.6477,-157.7003 218.6477,-157.7003 218.6477,-163.7003 212.6477,-169.7003 206.6477,-169.7003"/>
<text text-anchor="middle" x="168.2156" y="-153" font-family="Helvetica,sans-Serif" font-size="14.00" fill="#000000">x1 &lt;= 0.092</text>
<text text-anchor="middle" x="168.2156" y="-136.2" font-family="Helvetica,sans-Serif" font-size="14.00" fill="#000000">mse = 0.038</text>
<text text-anchor="middle" x="168.2156" y="-119.4" font-family="Helvetica,sans-Serif" font-size="14.00" fill="#000000">samples = 44</text>
<text text-anchor="middle" x="168.2156" y="-102.6" font-family="Helvetica,sans-Serif" font-size="14.00" fill="#000000">value = 0.689</text>
</g>
<!-- 0&#45;&gt;1 -->
<g id="edge1" class="edge">
<title>0-&gt;1</title>
<path fill="none" stroke="#000000" d="M208.5638,-205.5528C203.794,-196.8577 198.6643,-187.5064 193.7151,-178.4843"/>
<polygon fill="#000000" stroke="#000000" points="196.7243,-176.6926 188.8461,-169.6085 190.5871,-180.0593 196.7243,-176.6926"/>
<text text-anchor="middle" x="181.8494" y="-189.4094" font-family="Helvetica,sans-Serif" font-size="14.00" fill="#000000">True</text>
</g>
<!-- 4 -->
<g id="node5" class="node">
<title>4</title>
<path fill="#fae6d7" stroke="#000000" d="M332.135,-169.7003C332.135,-169.7003 248.2962,-169.7003 248.2962,-169.7003 242.2962,-169.7003 236.2962,-163.7003 236.2962,-157.7003 236.2962,-157.7003 236.2962,-106.2997 236.2962,-106.2997 236.2962,-100.2997 242.2962,-94.2997 248.2962,-94.2997 248.2962,-94.2997 332.135,-94.2997 332.135,-94.2997 338.135,-94.2997 344.135,-100.2997 344.135,-106.2997 344.135,-106.2997 344.135,-157.7003 344.135,-157.7003 344.135,-163.7003 338.135,-169.7003 332.135,-169.7003"/>
<text text-anchor="middle" x="290.2156" y="-153" font-family="Helvetica,sans-Serif" font-size="14.00" fill="#000000">x1 &lt;= 0.772</text>
<text text-anchor="middle" x="290.2156" y="-136.2" font-family="Helvetica,sans-Serif" font-size="14.00" fill="#000000">mse = 0.074</text>
<text text-anchor="middle" x="290.2156" y="-119.4" font-family="Helvetica,sans-Serif" font-size="14.00" fill="#000000">samples = 156</text>
<text text-anchor="middle" x="290.2156" y="-102.6" font-family="Helvetica,sans-Serif" font-size="14.00" fill="#000000">value = 0.259</text>
</g>
<!-- 0&#45;&gt;4 -->
<g id="edge4" class="edge">
<title>0-&gt;4</title>
<path fill="none" stroke="#000000" d="M249.8674,-205.5528C254.6372,-196.8577 259.7669,-187.5064 264.7161,-178.4843"/>
<polygon fill="#000000" stroke="#000000" points="267.8441,-180.0593 269.5851,-169.6085 261.7069,-176.6926 267.8441,-180.0593"/>
<text text-anchor="middle" x="276.5818" y="-189.4094" font-family="Helvetica,sans-Serif" font-size="14.00" fill="#000000">False</text>
</g>
<!-- 2 -->
<g id="node3" class="node">
<title>2</title>
<path fill="#e58139" stroke="#000000" d="M88.6477,-58.6014C88.6477,-58.6014 11.7835,-58.6014 11.7835,-58.6014 5.7835,-58.6014 -.2165,-52.6014 -.2165,-46.6014 -.2165,-46.6014 -.2165,-11.7986 -.2165,-11.7986 -.2165,-5.7986 5.7835,.2014 11.7835,.2014 11.7835,.2014 88.6477,.2014 88.6477,.2014 94.6477,.2014 100.6477,-5.7986 100.6477,-11.7986 100.6477,-11.7986 100.6477,-46.6014 100.6477,-46.6014 100.6477,-52.6014 94.6477,-58.6014 88.6477,-58.6014"/>
<text text-anchor="middle" x="50.2156" y="-41.8" font-family="Helvetica,sans-Serif" font-size="14.00" fill="#000000">mse = 0.018</text>
<text text-anchor="middle" x="50.2156" y="-25" font-family="Helvetica,sans-Serif" font-size="14.00" fill="#000000">samples = 20</text>
<text text-anchor="middle" x="50.2156" y="-8.2" font-family="Helvetica,sans-Serif" font-size="14.00" fill="#000000">value = 0.854</text>
</g>
<!-- 1&#45;&gt;2 -->
<g id="edge2" class="edge">
<title>1-&gt;2</title>
<path fill="none" stroke="#000000" d="M124.9468,-94.3048C114.0434,-84.806 102.3668,-74.6335 91.5606,-65.2192"/>
<polygon fill="#000000" stroke="#000000" points="93.7084,-62.4484 83.8693,-58.5186 89.1102,-67.7264 93.7084,-62.4484"/>
</g>
<!-- 3 -->
<g id="node4" class="node">
<title>3</title>
<path fill="#f0b489" stroke="#000000" d="M206.6477,-58.6014C206.6477,-58.6014 129.7835,-58.6014 129.7835,-58.6014 123.7835,-58.6014 117.7835,-52.6014 117.7835,-46.6014 117.7835,-46.6014 117.7835,-11.7986 117.7835,-11.7986 117.7835,-5.7986 123.7835,.2014 129.7835,.2014 129.7835,.2014 206.6477,.2014 206.6477,.2014 212.6477,.2014 218.6477,-5.7986 218.6477,-11.7986 218.6477,-11.7986 218.6477,-46.6014 218.6477,-46.6014 218.6477,-52.6014 212.6477,-58.6014 206.6477,-58.6014"/>
<text text-anchor="middle" x="168.2156" y="-41.8" font-family="Helvetica,sans-Serif" font-size="14.00" fill="#000000">mse = 0.013</text>
<text text-anchor="middle" x="168.2156" y="-25" font-family="Helvetica,sans-Serif" font-size="14.00" fill="#000000">samples = 24</text>
<text text-anchor="middle" x="168.2156" y="-8.2" font-family="Helvetica,sans-Serif" font-size="14.00" fill="#000000">value = 0.552</text>
</g>
<!-- 1&#45;&gt;3 -->
<g id="edge3" class="edge">
<title>1-&gt;3</title>
<path fill="none" stroke="#000000" d="M168.2156,-94.3048C168.2156,-85.9126 168.2156,-76.9946 168.2156,-68.5382"/>
<polygon fill="#000000" stroke="#000000" points="171.7157,-68.5186 168.2156,-58.5186 164.7157,-68.5187 171.7157,-68.5186"/>
</g>
<!-- 5 -->
<g id="node6" class="node">
<title>5</title>
<path fill="#ffffff" stroke="#000000" d="M332.135,-58.6014C332.135,-58.6014 248.2962,-58.6014 248.2962,-58.6014 242.2962,-58.6014 236.2962,-52.6014 236.2962,-46.6014 236.2962,-46.6014 236.2962,-11.7986 236.2962,-11.7986 236.2962,-5.7986 242.2962,.2014 248.2962,.2014 248.2962,.2014 332.135,.2014 332.135,.2014 338.135,.2014 344.135,-5.7986 344.135,-11.7986 344.135,-11.7986 344.135,-46.6014 344.135,-46.6014 344.135,-52.6014 338.135,-58.6014 332.135,-58.6014"/>
<text text-anchor="middle" x="290.2156" y="-41.8" font-family="Helvetica,sans-Serif" font-size="14.00" fill="#000000">mse = 0.015</text>
<text text-anchor="middle" x="290.2156" y="-25" font-family="Helvetica,sans-Serif" font-size="14.00" fill="#000000">samples = 110</text>
<text text-anchor="middle" x="290.2156" y="-8.2" font-family="Helvetica,sans-Serif" font-size="14.00" fill="#000000">value = 0.111</text>
</g>
<!-- 4&#45;&gt;5 -->
<g id="edge5" class="edge">
<title>4-&gt;5</title>
<path fill="none" stroke="#000000" d="M290.2156,-94.3048C290.2156,-85.9126 290.2156,-76.9946 290.2156,-68.5382"/>
<polygon fill="#000000" stroke="#000000" points="293.7157,-68.5186 290.2156,-58.5186 286.7157,-68.5187 293.7157,-68.5186"/>
</g>
<!-- 6 -->
<g id="node7" class="node">
<title>6</title>
<path fill="#edaa79" stroke="#000000" d="M450.6477,-58.6014C450.6477,-58.6014 373.7835,-58.6014 373.7835,-58.6014 367.7835,-58.6014 361.7835,-52.6014 361.7835,-46.6014 361.7835,-46.6014 361.7835,-11.7986 361.7835,-11.7986 361.7835,-5.7986 367.7835,.2014 373.7835,.2014 373.7835,.2014 450.6477,.2014 450.6477,.2014 456.6477,.2014 462.6477,-5.7986 462.6477,-11.7986 462.6477,-11.7986 462.6477,-46.6014 462.6477,-46.6014 462.6477,-52.6014 456.6477,-58.6014 450.6477,-58.6014"/>
<text text-anchor="middle" x="412.2156" y="-41.8" font-family="Helvetica,sans-Serif" font-size="14.00" fill="#000000">mse = 0.036</text>
<text text-anchor="middle" x="412.2156" y="-25" font-family="Helvetica,sans-Serif" font-size="14.00" fill="#000000">samples = 46</text>
<text text-anchor="middle" x="412.2156" y="-8.2" font-family="Helvetica,sans-Serif" font-size="14.00" fill="#000000">value = 0.615</text>
</g>
<!-- 4&#45;&gt;6 -->
<g id="edge6" class="edge">
<title>4-&gt;6</title>
<path fill="none" stroke="#000000" d="M334.9511,-94.3048C346.2241,-84.806 358.2965,-74.6335 369.4691,-65.2192"/>
<polygon fill="#000000" stroke="#000000" points="372.0292,-67.6389 377.4211,-58.5186 367.5186,-62.2858 372.0292,-67.6389"/>
</g>
</g>
</svg>