<?xml version="1.0" encoding="UTF-8" standalone="no"?>
<!DOCTYPE svg PUBLIC "-//W3C//DTD SVG 1.1//EN" "http://www.w3.org/Graphics/SVG/1.1/DTD/svg11.dtd">
<!-- Generated by graphviz version 2.40.1 (20161225.0304)
 -->
<!-- Title: Tree Pages: 1 -->
<svg width="470pt" height="289pt" viewBox="0.00 0.00 470.03 288.80" xmlns="http://www.w3.org/2000/svg" xmlns:xlink="http://www.w3.org/1999/xlink">
<g id="graph0" class="graph" transform="scale(1 1) rotate(0) translate(4 284.8)">
<title>Tree</title>
<polygon fill="#ffffff" stroke="transparent" points="-4,4 -4,-284.8 466.0336,-284.8 466.0336,4 -4,4"/>
<!-- 0 -->
<g id="node1" class="node">
<title>0</title>
<path fill="#f8decb" stroke="#000000" d="M270.7374,-280.9003C270.7374,-280.9003 186.8986,-280.9003 186.8986,-280.9003 180.8986,-280.9003 174.8986,-274.9003 174.8986,-268.9003 174.8986,-268.9003 174.8986,-217.4997 174.8986,-217.4997 174.8986,-211.4997 180.8986,-205.4997 186.8986,-205.4997 186.8986,-205.4997 270.7374,-205.4997 270.7374,-205.4997 276.7374,-205.4997 282.7374,-211.4997 282.7374,-217.4997 282.7374,-217.4997 282.7374,-268.9003 282.7374,-268.9003 282.7374,-274.9003 276.7374,-280.9003 270.7374,-280.9003"/>
<text text-anchor="middle" x="228.818" y="-264.2" font-family="Helvetica,sans-Serif" font-size="14.00" fill="#000000">x1 &lt;= 0.15</text>
<text text-anchor="middle" x="228.818" y="-247.4" font-family="Helvetica,sans-Serif" font-size="14.00" fill="#000000">mse = 0.085</text>
<text text-anchor="middle" x="228.818" y="-230.6" font-family="Helvetica,sans-Serif" font-size="14.00" fill="#000000">samples = 200</text>
<text text-anchor="middle" x="228.818" y="-213.8" font-family="Helvetica,sans-Serif" font-size="14.00" fill="#000000">value = 0.347</text>
</g>
<!-- 1 -->
<g id="node2" class="node">
<title>1</title>
<path fill="#ea9a60" stroke="#000000" d="M206.2501,-169.7003C206.2501,-169.7003 129.3859,-169.7003 129.3859,-169.7003 123.3859,-169.7003 117.3859,-163.7003 117.3859,-157.7003 117.3859,-157.7003 117.3859,-106.2997 117.3859,-106.2997 117.3859,-100.2997 123.3859,-94.2997 129.3859,-94.2997 129.3859,-94.2997 206.2501,-94.2997 206.2501,-94.2997 212.2501,-94.2997 218.2501,-100.2997 218.2501,-106.2997 218.2501,-106.2997 218.2501,-157.7003 218.2501,-157.7003 218.2501,-163.7003 212.2501,-169.7003 206.2501,-169.7003"/>
<text text-anchor="middle" x="167.818" y="-153" font-family="Helvetica,sans-Serif" font-size="14.00" fill="#000000">x1 &lt;= 0.07</text>
<text text-anchor="middle" x="167.818" y="-136.2" font-family="Helvetica,sans-Serif" font-size="14.00" fill="#000000">mse = 0.02</text>
<text text-anchor="middle" x="167.818" y="-119.4" font-family="Helvetica,sans-Serif" font-size="14.00" fill="#000000">samples = 33</text>
<text text-anchor="middle" x="167.818" y="-102.6" font-family="Helvetica,sans-Serif" font-size="14.00" fill="#000000">value = 0.725</text>
</g>
<!-- 0&#45;&gt;1 -->
<g id="edge1" class="edge">
<title>0-&gt;1</title>
<path fill="none" stroke="#000000" d="M208.1662,-205.5528C203.3964,-196.8577 198.2667,-187.5064 193.3175,-178.4843"/>
<polygon fill="#000000" stroke="#000000" points="196.3267,-176.6926 188.4485,-169.6085 190.1895,-180.0593 196.3267,-176.6926"/>
<text text-anchor="middle" x="181.4518" y="-189.4094" font-family="Helvetica,sans-Serif" font-size="14.00" fill="#000000">True</text>
</g>
<!-- 4 -->
<g id="node5" class="node">
<title>4</title>
<path fill="#fbece1" stroke="#000000" d="M331.7374,-169.7003C331.7374,-169.7003 247.8986,-169.7003 247.8986,-169.7003 241.8986,-169.7003 235.8986,-163.7003 235.8986,-157.7003 235.8986,-157.7003 235.8986,-106.2997 235.8986,-106.2997 235.8986,-100.2997 241.8986,-94.2997 247.8986,-94.2997 247.8986,-94.2997 331.7374,-94.2997 331.7374,-94.2997 337.7374,-94.2997 343.7374,-100.2997 343.7374,-106.2997 343.7374,-106.2997 343.7374,-157.7003 343.7374,-157.7003 343.7374,-163.7003 337.7374,-169.7003 331.7374,-169.7003"/>
<text text-anchor="middle" x="289.818" y="-153" font-family="Helvetica,sans-Serif" font-size="14.00" fill="#000000">x1 &lt;= 0.823</text>
<text text-anchor="middle" x="289.818" y="-136.2" font-family="Helvetica,sans-Serif" font-size="14.00" fill="#000000">mse = 0.063</text>
<text text-anchor="middle" x="289.818" y="-119.4" font-family="Helvetica,sans-Serif" font-size="14.00" fill="#000000">samples = 167</text>
<text text-anchor="middle" x="289.818" y="-102.6" font-family="Helvetica,sans-Serif" font-size="14.00" fill="#000000">value = 0.272</text>
</g>
<!-- 0&#45;&gt;4 -->
<g id="edge4" class="edge">
<title>0-&gt;4</title>
<path fill="none" stroke="#000000" d="M249.4698,-205.5528C254.2396,-196.8577 259.3693,-187.5064 264.3185,-178.4843"/>
<polygon fill="#000000" stroke="#000000" points="267.4465,-180.0593 269.1875,-169.6085 261.3093,-176.6926 267.4465,-180.0593"/>
<text text-anchor="middle" x="276.1842" y="-189.4094" font-family="Helvetica,sans-Serif" font-size="14.00" fill="#000000">False</text>
</g>
<!-- 2 -->
<g id="node3" class="node">
<title>2</title>
<path fill="#e58139" stroke="#000000" d="M87.4547,-58.6014C87.4547,-58.6014 12.1813,-58.6014 12.1813,-58.6014 6.1813,-58.6014 .1813,-52.6014 .1813,-46.6014 .1813,-46.6014 .1813,-11.7986 .1813,-11.7986 .1813,-5.7986 6.1813,.2014 12.1813,.2014 12.1813,.2014 87.4547,.2014 87.4547,.2014 93.4547,.2014 99.4547,-5.7986 99.4547,-11.7986 99.4547,-11.7986 99.4547,-46.6014 99.4547,-46.6014 99.4547,-52.6014 93.4547,-58.6014 87.4547,-58.6014"/>
<text text-anchor="middle" x="49.818" y="-41.8" font-family="Helvetica,sans-Serif" font-size="14.00" fill="#000000">mse = 0.005</text>
<text text-anchor="middle" x="49.818" y="-25" font-family="Helvetica,sans-Serif" font-size="14.00" fill="#000000">samples = 15</text>
<text text-anchor="middle" x="49.818" y="-8.2" font-family="Helvetica,sans-Serif" font-size="14.00" fill="#000000">value = 0.86</text>
</g>
<!-- 1&#45;&gt;2 -->
<g id="edge2" class="edge">
<title>1-&gt;2</title>
<path fill="none" stroke="#000000" d="M124.5492,-94.3048C113.6458,-84.806 101.9692,-74.6335 91.163,-65.2192"/>
<polygon fill="#000000" stroke="#000000" points="93.3108,-62.4484 83.4717,-58.5186 88.7126,-67.7264 93.3108,-62.4484"/>
</g>
<!-- 3 -->
<g id="node4" class="node">
<title>3</title>
<path fill="#eeae80" stroke="#000000" d="M206.2501,-58.6014C206.2501,-58.6014 129.3859,-58.6014 129.3859,-58.6014 123.3859,-58.6014 117.3859,-52.6014 117.3859,-46.6014 117.3859,-46.6014 117.3859,-11.7986 117.3859,-11.7986 117.3859,-5.7986 123.3859,.2014 129.3859,.2014 129.3859,.2014 206.2501,.2014 206.2501,.2014 212.2501,.2014 218.2501,-5.7986 218.2501,-11.7986 218.2501,-11.7986 218.2501,-46.6014 218.2501,-46.6014 218.2501,-52.6014 212.2501,-58.6014 206.2501,-58.6014"/>
<text text-anchor="middle" x="167.818" y="-41.8" font-family="Helvetica,sans-Serif" font-size="14.00" fill="#000000">mse = 0.005</text>
<text text-anchor="middle" x="167.818" y="-25" font-family="Helvetica,sans-Serif" font-size="14.00" fill="#000000">samples = 18</text>
<text text-anchor="middle" x="167.818" y="-8.2" font-family="Helvetica,sans-Serif" font-size="14.00" fill="#000000">value = 0.613</text>
</g>
<!-- 1&#45;&gt;3 -->
<g id="edge3" class="edge">
<title>1-&gt;3</title>
<path fill="none" stroke="#000000" d="M167.818,-94.3048C167.818,-85.9126 167.818,-76.9946 167.818,-68.5382"/>
<polygon fill="#000000" stroke="#000000" points="171.3181,-68.5186 167.818,-58.5186 164.3181,-68.5187 171.3181,-68.5186"/>
</g>
<!-- 5 -->
<g id="node6" class="node">
<title>5</title>
<path fill="#ffffff" stroke="#000000" d="M331.7374,-58.6014C331.7374,-58.6014 247.8986,-58.6014 247.8986,-58.6014 241.8986,-58.6014 235.8986,-52.6014 235.8986,-46.6014 235.8986,-46.6014 235.8986,-11.7986 235.8986,-11.7986 235.8986,-5.7986 241.8986,.2014 247.8986,.2014 247.8986,.2014 331.7374,.2014 331.7374,.2014 337.7374,.2014 343.7374,-5.7986 343.7374,-11.7986 343.7374,-11.7986 343.7374,-46.6014 343.7374,-46.6014 343.7374,-52.6014 337.7374,-58.6014 331.7374,-58.6014"/>
<text text-anchor="middle" x="289.818" y="-41.8" font-family="Helvetica,sans-Serif" font-size="14.00" fill="#000000">mse = 0.019</text>
<text text-anchor="middle" x="289.818" y="-25" font-family="Helvetica,sans-Serif" font-size="14.00" fill="#000000">samples = 133</text>
<text text-anchor="middle" x="289.818" y="-8.2" font-family="Helvetica,sans-Serif" font-size="14.00" fill="#000000">value = 0.166</text>
</g>
<!-- 4&#45;&gt;5 -->
<g id="edge5" class="edge">
<title>4-&gt;5</title>
<path fill="none" stroke="#000000" d="M289.818,-94.3048C289.818,-85.9126 289.818,-76.9946 289.818,-68.5382"/>
<polygon fill="#000000" stroke="#000000" points="293.3181,-68.5186 289.818,-58.5186 286.3181,-68.5187 293.3181,-68.5186"/>
</g>
<!-- 6 -->
<g id="node7" class="node">
<title>6</title>
<path fill="#eba06a" stroke="#000000" d="M450.2501,-58.6014C450.2501,-58.6014 373.3859,-58.6014 373.3859,-58.6014 367.3859,-58.6014 361.3859,-52.6014 361.3859,-46.6014 361.3859,-46.6014 361.3859,-11.7986 361.3859,-11.7986 361.3859,-5.7986 367.3859,.2014 373.3859,.2014 373.3859,.2014 450.2501,.2014 450.2501,.2014 456.2501,.2014 462.2501,-5.7986 462.2501,-11.7986 462.2501,-11.7986 462.2501,-46.6014 462.2501,-46.6014 462.2501,-52.6014 456.2501,-58.6014 450.2501,-58.6014"/>
<text text-anchor="middle" x="411.818" y="-41.8" font-family="Helvetica,sans-Serif" font-size="14.00" fill="#000000">mse = 0.02</text>
<text text-anchor="middle" x="411.818" y="-25" font-family="Helvetica,sans-Serif" font-size="14.00" fill="#000000">samples = 34</text>
<text text-anchor="middle" x="411.818" y="-8.2" font-family="Helvetica,sans-Serif" font-size="14.00" fill="#000000">value = 0.688</text>
</g>
<!-- 4&#45;&gt;6 -->
<g id="edge6" class="edge">
<title>4-&gt;6</title>
<path fill="none" stroke="#000000" d="M334.5535,-94.3048C345.8265,-84.806 357.8989,-74.6335 369.0715,-65.2192"/>
<polygon fill="#000000" stroke="#000000" points="371.6316,-67.6389 377.0235,-58.5186 367.121,-62.2858 371.6316,-67.6389"/>
</g>
</g>
</svg>